<?xml version="1.0" encoding="utf-8"?>

<!DOCTYPE svg PUBLIC "-//W3C//DTD SVG 1.1//EN" "http://www.w3.org/Graphics/SVG/1.1/DTD/svg11.dtd">
<!-- Uploaded to: SVG Repo, www.svgrepo.com, Generator: SVG Repo Mixer Tools -->
<svg height="10px" width="10px" version="1.1" id="_x32_" xmlns="http://www.w3.org/2000/svg" xmlns:xlink="http://www.w3.org/1999/xlink" 
	 viewBox="0 0 512 512"  xml:space="preserve">
<style type="text/css">
	.st0{fill:#000000;}
</style>
<g>
	<path class="st0" d="M118.612,89.298c9.483,0,17.177-7.686,17.177-17.168v-54.96C135.788,7.687,128.094,0,118.612,0
		c-9.482,0-17.176,7.687-17.176,17.169v54.96C101.436,81.611,109.13,89.298,118.612,89.298z"/>
	<path class="st0" d="M255.992,89.298c9.483,0,17.176-7.686,17.176-17.168v-54.96C273.169,7.687,265.475,0,255.992,0
		c-9.483,0-17.169,7.687-17.169,17.169v54.96C238.824,81.611,246.51,89.298,255.992,89.298z"/>
	<path class="st0" d="M393.372,89.298c9.49,0,17.176-7.686,17.176-17.168v-54.96C410.549,7.687,402.863,0,393.372,0
		c-9.482,0-17.169,7.687-17.169,17.169v54.96C376.204,81.611,383.89,89.298,393.372,89.298z"/>
	<path class="st0" d="M196.576,275.986h23.082c1.611,0,2.683-1.071,2.683-2.682v-20.931c0-1.079,0.539-1.611,1.611-1.611h61.142
		v0.802l-59.578,151.904c-0.802,1.881,0,2.953,1.611,2.953h25.495c2.143,0,2.683-0.54,3.492-2.413l60.379-151.635
		c0.54-1.341,0.81-2.683,0.81-4.834v-20.931c0-1.611-1.072-2.682-2.683-2.682H196.576c-1.611,0-2.682,1.071-2.682,2.682v46.696
		C193.894,274.915,194.965,275.986,196.576,275.986z"/>
	<path class="st0" d="M424.286,44.899v27.23c0,17.038-13.861,30.906-30.914,30.906c-17.038,0-30.906-13.869-30.906-30.906v-27.23
		h-75.559v27.23c0,17.038-13.869,30.906-30.914,30.906c-17.038,0-30.907-13.869-30.907-30.906v-27.23h-75.558v27.23
		c0,17.038-13.87,30.906-30.915,30.906c-17.038,0-30.914-13.869-30.914-30.906v-27.23H17.866V512h476.267V44.899H424.286z
		 M450.86,468.735H61.132V143.116H450.86V468.735z"/>
</g>
</svg>