<?xml version="1.0" encoding="utf-8"?>
<!-- Uploaded to: SVG Repo, www.svgrepo.com, Generator: SVG Repo Mixer Tools -->
<svg fill="#000000" height="800px" width="800px" version="1.1" id="_x31__1_" xmlns="http://www.w3.org/2000/svg" xmlns:xlink="http://www.w3.org/1999/xlink" 
	 viewBox="0 0 128 128" xml:space="preserve">
<polygon id="_x34_" points="23.6,75.6 23.6,89.8 37.8,89.8 37.8,86.9 26.4,86.9 26.4,75.6 "/>
<polygon id="_x34__1_" points="96.7,89.8 110.9,89.8 110.9,75.6 108,75.6 108,86.9 96.7,86.9 "/>
<polygon id="_x33_" points="37.8,44.3 23.6,44.3 23.6,58.5 26.4,58.5 26.4,47.2 37.8,47.2 "/>
<polygon id="_x32_" points="111.6,58.5 111.6,44.3 97.4,44.3 97.4,47.2 108.7,47.2 108.7,58.5 "/>
<path id="_x31_" d="M48.4,67c0,10.2,8.2,18.5,18.5,18.5S85.3,77.3,85.3,67s-8.2-18.5-18.5-18.5S48.4,56.8,48.4,67z M68.3,55.7
	c2.3,0,4,0.6,5.3,1.1l-1.1,4c-0.9-0.4-2.4-1-4.5-1s-3.3,1-3.3,2.1c0,1.4,1.3,2,4.1,3.1c3.8,1.4,5.7,3.4,5.7,6.5s-2,5.7-6.1,6.5v3.3
	h-2.8v-3.1c-2.4,0-5-0.7-6.1-1.3l1-4.1c1.3,0.7,3.4,1.4,5.5,1.4c2.3,0,3.5-1,3.5-2.4s-1-2.1-3.7-3.1c-3.7-1.3-6.1-3.3-6.1-6.5
	c0-3.1,2.1-5.5,5.8-6.4v-3.4h2.8C68.3,52.4,68.3,55.7,68.3,55.7z"/>
<g>
	<path d="M114.2,35.7v-5.9H9.2v62.5H15v5.9h105V35.7H114.2z M12,89.5V32.7h99.3v3H15v53.8H12z M117.2,95.4H17.9V38.5h99.3V95.4z"/>
</g>
</svg>