<?xml version="1.0" encoding="iso-8859-1"?>
<!-- Uploaded to: SVG Repo, www.svgrepo.com, Generator: SVG Repo Mixer Tools -->
<svg fill="#000000" height="800px" width="800px" version="1.1" id="Layer_1" xmlns="http://www.w3.org/2000/svg" xmlns:xlink="http://www.w3.org/1999/xlink" 
	 viewBox="0 0 512.004 512.004" xml:space="preserve">
<g>
	<g>
		<path d="M511.834,276.524c-0.085-2.411-0.427-4.821-1.344-7.125l-42.667-106.667c-3.264-8.085-11.093-13.397-19.819-13.397v-64
			c0-11.776-9.536-21.333-21.333-21.333h-64c-11.797,0-21.333,9.557-21.333,21.333v85.333v85.333h-21.333v-42.667
			c0-11.776-9.536-21.333-21.333-21.333h-21.333v-42.667c0-11.776-9.536-21.333-21.333-21.333h-21.333V85.335
			c0-11.776-9.536-21.333-21.333-21.333h-85.333c-11.797,0-21.333,9.557-21.333,21.333v42.667H85.338
			c-11.797,0-21.333,9.557-21.333,21.333v42.667H42.671c-11.797,0-21.333,9.557-21.333,21.333v42.667
			c-7.083,0-13.696,3.52-17.664,9.365c-3.968,5.867-4.779,13.312-2.155,19.904l41.152,102.827v17.28
			c0,23.509,19.115,42.624,42.603,42.624h315.157c9.301,0,18.347-2.88,26.325-8.491c1.365-0.939,2.688-1.899,4.181-3.221
			l71.339-64.213c6.187-5.568,9.728-13.547,9.728-21.845v-72.896C512.005,277.036,511.855,276.801,511.834,276.524z
			 M192.005,106.668v21.333h-21.333h-21.333v-21.333H192.005z M106.671,256.001H64.005v-21.333h21.333h21.333V256.001z
			 M149.337,192.001h-21.333h-21.333v-21.333h21.333h21.333V192.001z M149.338,256.001v-21.333h21.333h21.333v21.333H149.338z
			 M192.005,192.001v-21.333h21.333h21.333v21.333h-21.333H192.005z M234.671,256.001v-21.333h21.333h21.333v21.333H234.671z
			 M384.005,256.001v-64h42.667h6.891l25.6,64H384.005z"/>
	</g>
</g>
</svg>